<mxfile host="app.diagrams.net" modified="2024-06-03T07:05:59.868Z" agent="Mozilla/5.0 (Windows NT 10.0; Win64; x64) AppleWebKit/537.36 (KHTML, like Gecko) Chrome/125.0.0.0 Safari/537.36" etag="AB6prKGYnemlCDlLBaXy" version="24.4.13" type="device">
  <diagram name="Страница — 1" id="J17kZx_zjoIYvYL_u2Vu">
    <mxGraphModel dx="1547" dy="1018" grid="0" gridSize="10" guides="1" tooltips="1" connect="1" arrows="1" fold="1" page="0" pageScale="1" pageWidth="827" pageHeight="1169" background="none" math="0" shadow="0">
      <root>
        <mxCell id="0" />
        <mxCell id="1" parent="0" />
        <mxCell id="031xoFP-o4x697wF1NQH-1" value="&lt;font style=&quot;font-size: 16px;&quot;&gt;Зарегистрироваться&lt;/font&gt;" style="ellipse;whiteSpace=wrap;html=1;" parent="1" vertex="1">
          <mxGeometry x="140" y="-21" width="170" height="74" as="geometry" />
        </mxCell>
        <mxCell id="031xoFP-o4x697wF1NQH-2" value="&lt;font style=&quot;font-size: 16px;&quot;&gt;Неавторизованный&lt;/font&gt;&lt;div style=&quot;font-size: 16px;&quot;&gt;&lt;font style=&quot;font-size: 16px;&quot;&gt;пользователь&lt;/font&gt;&lt;/div&gt;" style="shape=umlActor;verticalLabelPosition=bottom;verticalAlign=top;html=1;outlineConnect=0;" parent="1" vertex="1">
          <mxGeometry x="54" y="264" width="30" height="60" as="geometry" />
        </mxCell>
        <mxCell id="031xoFP-o4x697wF1NQH-3" value="" style="endArrow=none;html=1;rounded=0;exitX=1;exitY=0.3333333333333333;exitDx=0;exitDy=0;exitPerimeter=0;entryX=0;entryY=1;entryDx=0;entryDy=0;" parent="1" source="031xoFP-o4x697wF1NQH-2" target="031xoFP-o4x697wF1NQH-1" edge="1">
          <mxGeometry width="50" height="50" relative="1" as="geometry">
            <mxPoint x="140" y="327" as="sourcePoint" />
            <mxPoint x="190" y="277" as="targetPoint" />
          </mxGeometry>
        </mxCell>
        <mxCell id="031xoFP-o4x697wF1NQH-5" value="&lt;font style=&quot;font-size: 16px;&quot;&gt;Посетить главную страницу&lt;/font&gt;" style="ellipse;whiteSpace=wrap;html=1;" parent="1" vertex="1">
          <mxGeometry x="358" y="139" width="170" height="74" as="geometry" />
        </mxCell>
        <mxCell id="031xoFP-o4x697wF1NQH-6" value="&lt;font style=&quot;font-size: 16px;&quot;&gt;Посетить страницу с мастерами&lt;/font&gt;" style="ellipse;whiteSpace=wrap;html=1;" parent="1" vertex="1">
          <mxGeometry x="351" y="225" width="170" height="74" as="geometry" />
        </mxCell>
        <mxCell id="031xoFP-o4x697wF1NQH-7" value="&lt;font style=&quot;font-size: 16px;&quot;&gt;Посетить страницу с услугами&lt;/font&gt;" style="ellipse;whiteSpace=wrap;html=1;" parent="1" vertex="1">
          <mxGeometry x="354" y="313" width="170" height="74" as="geometry" />
        </mxCell>
        <mxCell id="031xoFP-o4x697wF1NQH-8" value="" style="endArrow=none;html=1;rounded=0;exitX=1;exitY=0.3333333333333333;exitDx=0;exitDy=0;exitPerimeter=0;entryX=0.059;entryY=0.253;entryDx=0;entryDy=0;entryPerimeter=0;" parent="1" source="031xoFP-o4x697wF1NQH-2" target="031xoFP-o4x697wF1NQH-7" edge="1">
          <mxGeometry width="50" height="50" relative="1" as="geometry">
            <mxPoint x="123" y="312" as="sourcePoint" />
            <mxPoint x="173" y="262" as="targetPoint" />
          </mxGeometry>
        </mxCell>
        <mxCell id="031xoFP-o4x697wF1NQH-9" value="" style="endArrow=none;html=1;rounded=0;exitX=1;exitY=0.3333333333333333;exitDx=0;exitDy=0;exitPerimeter=0;entryX=0;entryY=0.5;entryDx=0;entryDy=0;" parent="1" source="031xoFP-o4x697wF1NQH-2" target="031xoFP-o4x697wF1NQH-6" edge="1">
          <mxGeometry width="50" height="50" relative="1" as="geometry">
            <mxPoint x="123" y="312" as="sourcePoint" />
            <mxPoint x="173" y="262" as="targetPoint" />
          </mxGeometry>
        </mxCell>
        <mxCell id="031xoFP-o4x697wF1NQH-10" value="" style="endArrow=none;html=1;rounded=0;exitX=1;exitY=0.3333333333333333;exitDx=0;exitDy=0;exitPerimeter=0;entryX=0.046;entryY=0.726;entryDx=0;entryDy=0;entryPerimeter=0;" parent="1" source="031xoFP-o4x697wF1NQH-2" target="031xoFP-o4x697wF1NQH-5" edge="1">
          <mxGeometry width="50" height="50" relative="1" as="geometry">
            <mxPoint x="84" y="327" as="sourcePoint" />
            <mxPoint x="134" y="277" as="targetPoint" />
          </mxGeometry>
        </mxCell>
        <mxCell id="031xoFP-o4x697wF1NQH-12" value="&lt;font style=&quot;font-size: 16px;&quot;&gt;Авторизоваться&lt;/font&gt;" style="ellipse;whiteSpace=wrap;html=1;" parent="1" vertex="1">
          <mxGeometry x="181" y="435" width="170" height="74" as="geometry" />
        </mxCell>
        <mxCell id="031xoFP-o4x697wF1NQH-13" value="" style="endArrow=none;html=1;rounded=0;entryX=0.401;entryY=0.005;entryDx=0;entryDy=0;exitX=1;exitY=0.3333333333333333;exitDx=0;exitDy=0;exitPerimeter=0;entryPerimeter=0;" parent="1" source="031xoFP-o4x697wF1NQH-2" target="031xoFP-o4x697wF1NQH-12" edge="1">
          <mxGeometry width="50" height="50" relative="1" as="geometry">
            <mxPoint x="83" y="284" as="sourcePoint" />
            <mxPoint x="229" y="389" as="targetPoint" />
          </mxGeometry>
        </mxCell>
        <mxCell id="031xoFP-o4x697wF1NQH-14" value="&lt;font style=&quot;font-size: 16px;&quot;&gt;Администратор&lt;/font&gt;" style="shape=umlActor;verticalLabelPosition=bottom;verticalAlign=top;html=1;outlineConnect=0;" parent="1" vertex="1">
          <mxGeometry x="740" y="75" width="30" height="60" as="geometry" />
        </mxCell>
        <mxCell id="031xoFP-o4x697wF1NQH-15" value="&lt;font style=&quot;font-size: 16px;&quot;&gt;Мастер&lt;/font&gt;" style="shape=umlActor;verticalLabelPosition=bottom;verticalAlign=top;html=1;outlineConnect=0;" parent="1" vertex="1">
          <mxGeometry x="740" y="216" width="30" height="60" as="geometry" />
        </mxCell>
        <mxCell id="031xoFP-o4x697wF1NQH-16" value="&lt;font style=&quot;font-size: 16px;&quot;&gt;Клиент&lt;/font&gt;" style="shape=umlActor;verticalLabelPosition=bottom;verticalAlign=top;html=1;outlineConnect=0;" parent="1" vertex="1">
          <mxGeometry x="740" y="359" width="30" height="60" as="geometry" />
        </mxCell>
        <mxCell id="031xoFP-o4x697wF1NQH-18" value="&lt;font style=&quot;font-size: 16px;&quot;&gt;Записаться на услугу&lt;/font&gt;" style="ellipse;whiteSpace=wrap;html=1;" parent="1" vertex="1">
          <mxGeometry x="351" y="406" width="170" height="74" as="geometry" />
        </mxCell>
        <mxCell id="031xoFP-o4x697wF1NQH-25" value="" style="endArrow=none;html=1;rounded=0;" parent="1" edge="1">
          <mxGeometry width="50" height="50" relative="1" as="geometry">
            <mxPoint x="641" y="379" as="sourcePoint" />
            <mxPoint x="641" y="95" as="targetPoint" />
          </mxGeometry>
        </mxCell>
        <mxCell id="031xoFP-o4x697wF1NQH-26" value="" style="endArrow=none;html=1;rounded=0;entryX=0;entryY=0.3333333333333333;entryDx=0;entryDy=0;entryPerimeter=0;" parent="1" target="031xoFP-o4x697wF1NQH-15" edge="1">
          <mxGeometry width="50" height="50" relative="1" as="geometry">
            <mxPoint x="641" y="236" as="sourcePoint" />
            <mxPoint x="582" y="293" as="targetPoint" />
          </mxGeometry>
        </mxCell>
        <mxCell id="031xoFP-o4x697wF1NQH-27" value="" style="endArrow=none;html=1;rounded=0;entryX=0;entryY=0.3333333333333333;entryDx=0;entryDy=0;entryPerimeter=0;" parent="1" target="031xoFP-o4x697wF1NQH-14" edge="1">
          <mxGeometry width="50" height="50" relative="1" as="geometry">
            <mxPoint x="641" y="95" as="sourcePoint" />
            <mxPoint x="737" y="99" as="targetPoint" />
          </mxGeometry>
        </mxCell>
        <mxCell id="031xoFP-o4x697wF1NQH-28" value="" style="endArrow=none;html=1;rounded=0;entryX=0;entryY=0.3333333333333333;entryDx=0;entryDy=0;entryPerimeter=0;" parent="1" edge="1">
          <mxGeometry width="50" height="50" relative="1" as="geometry">
            <mxPoint x="641" y="379" as="sourcePoint" />
            <mxPoint x="741" y="379" as="targetPoint" />
          </mxGeometry>
        </mxCell>
        <mxCell id="031xoFP-o4x697wF1NQH-29" value="" style="endArrow=none;html=1;rounded=0;exitX=1;exitY=0.5;exitDx=0;exitDy=0;" parent="1" source="031xoFP-o4x697wF1NQH-18" edge="1">
          <mxGeometry width="50" height="50" relative="1" as="geometry">
            <mxPoint x="547" y="366" as="sourcePoint" />
            <mxPoint x="641" y="236" as="targetPoint" />
          </mxGeometry>
        </mxCell>
        <mxCell id="031xoFP-o4x697wF1NQH-30" value="" style="endArrow=none;html=1;rounded=0;exitX=1;exitY=0.5;exitDx=0;exitDy=0;" parent="1" source="031xoFP-o4x697wF1NQH-6" edge="1">
          <mxGeometry width="50" height="50" relative="1" as="geometry">
            <mxPoint x="547" y="242" as="sourcePoint" />
            <mxPoint x="641" y="236" as="targetPoint" />
          </mxGeometry>
        </mxCell>
        <mxCell id="031xoFP-o4x697wF1NQH-31" value="" style="endArrow=none;html=1;rounded=0;exitX=1;exitY=0.5;exitDx=0;exitDy=0;" parent="1" source="031xoFP-o4x697wF1NQH-7" edge="1">
          <mxGeometry width="50" height="50" relative="1" as="geometry">
            <mxPoint x="516" y="278" as="sourcePoint" />
            <mxPoint x="641" y="236" as="targetPoint" />
          </mxGeometry>
        </mxCell>
        <mxCell id="031xoFP-o4x697wF1NQH-34" value="" style="endArrow=none;html=1;rounded=0;exitX=1;exitY=0.5;exitDx=0;exitDy=0;" parent="1" source="031xoFP-o4x697wF1NQH-5" edge="1">
          <mxGeometry width="50" height="50" relative="1" as="geometry">
            <mxPoint x="533" y="189" as="sourcePoint" />
            <mxPoint x="641" y="236" as="targetPoint" />
          </mxGeometry>
        </mxCell>
        <mxCell id="031xoFP-o4x697wF1NQH-37" value="&lt;font style=&quot;font-size: 16px;&quot;&gt;Редактирование услуги&lt;/font&gt;" style="ellipse;whiteSpace=wrap;html=1;" parent="1" vertex="1">
          <mxGeometry x="874" y="-66" width="170" height="74" as="geometry" />
        </mxCell>
        <mxCell id="031xoFP-o4x697wF1NQH-38" value="&lt;font style=&quot;font-size: 16px;&quot;&gt;Редактирование мастера&lt;/font&gt;" style="ellipse;whiteSpace=wrap;html=1;" parent="1" vertex="1">
          <mxGeometry x="945" y="81" width="170" height="74" as="geometry" />
        </mxCell>
        <mxCell id="031xoFP-o4x697wF1NQH-39" value="&lt;font style=&quot;font-size: 16px;&quot;&gt;Добавление услуги&lt;/font&gt;" style="ellipse;whiteSpace=wrap;html=1;" parent="1" vertex="1">
          <mxGeometry x="704" y="-95" width="170" height="74" as="geometry" />
        </mxCell>
        <mxCell id="031xoFP-o4x697wF1NQH-40" value="" style="endArrow=none;html=1;rounded=0;exitX=1;exitY=0.3333333333333333;exitDx=0;exitDy=0;exitPerimeter=0;entryX=0.5;entryY=1;entryDx=0;entryDy=0;" parent="1" source="031xoFP-o4x697wF1NQH-14" target="031xoFP-o4x697wF1NQH-39" edge="1">
          <mxGeometry width="50" height="50" relative="1" as="geometry">
            <mxPoint x="823" y="96" as="sourcePoint" />
            <mxPoint x="873" y="46" as="targetPoint" />
          </mxGeometry>
        </mxCell>
        <mxCell id="031xoFP-o4x697wF1NQH-41" value="" style="endArrow=none;html=1;rounded=0;exitX=1;exitY=0.3333333333333333;exitDx=0;exitDy=0;exitPerimeter=0;entryX=0;entryY=0.5;entryDx=0;entryDy=0;" parent="1" source="031xoFP-o4x697wF1NQH-14" target="031xoFP-o4x697wF1NQH-38" edge="1">
          <mxGeometry width="50" height="50" relative="1" as="geometry">
            <mxPoint x="780" y="105" as="sourcePoint" />
            <mxPoint x="902" y="33" as="targetPoint" />
          </mxGeometry>
        </mxCell>
        <mxCell id="031xoFP-o4x697wF1NQH-42" value="" style="endArrow=none;html=1;rounded=0;entryX=0.244;entryY=0.917;entryDx=0;entryDy=0;entryPerimeter=0;exitX=1;exitY=0.3333333333333333;exitDx=0;exitDy=0;exitPerimeter=0;" parent="1" source="031xoFP-o4x697wF1NQH-14" target="031xoFP-o4x697wF1NQH-37" edge="1">
          <mxGeometry width="50" height="50" relative="1" as="geometry">
            <mxPoint x="788" y="111" as="sourcePoint" />
            <mxPoint x="912" y="43" as="targetPoint" />
          </mxGeometry>
        </mxCell>
        <mxCell id="031xoFP-o4x697wF1NQH-43" value="" style="endArrow=none;html=1;rounded=0;exitX=1;exitY=0.3333333333333333;exitDx=0;exitDy=0;exitPerimeter=0;entryX=0.197;entryY=0.128;entryDx=0;entryDy=0;entryPerimeter=0;" parent="1" source="031xoFP-o4x697wF1NQH-14" target="031xoFP-o4x697wF1NQH-44" edge="1">
          <mxGeometry width="50" height="50" relative="1" as="geometry">
            <mxPoint x="869" y="174" as="sourcePoint" />
            <mxPoint x="991" y="102" as="targetPoint" />
          </mxGeometry>
        </mxCell>
        <mxCell id="031xoFP-o4x697wF1NQH-44" value="&lt;font style=&quot;font-size: 16px;&quot;&gt;Изменение роли&lt;/font&gt;" style="ellipse;whiteSpace=wrap;html=1;" parent="1" vertex="1">
          <mxGeometry x="855" y="232" width="170" height="74" as="geometry" />
        </mxCell>
        <mxCell id="031xoFP-o4x697wF1NQH-45" value="" style="endArrow=none;html=1;rounded=0;exitX=1;exitY=0.3333333333333333;exitDx=0;exitDy=0;exitPerimeter=0;entryX=0;entryY=0.5;entryDx=0;entryDy=0;" parent="1" source="031xoFP-o4x697wF1NQH-14" target="031xoFP-o4x697wF1NQH-46" edge="1">
          <mxGeometry width="50" height="50" relative="1" as="geometry">
            <mxPoint x="756" y="190" as="sourcePoint" />
            <mxPoint x="977" y="197" as="targetPoint" />
          </mxGeometry>
        </mxCell>
        <mxCell id="031xoFP-o4x697wF1NQH-46" value="&lt;font style=&quot;font-size: 16px;&quot;&gt;Удаление услуги&lt;/font&gt;" style="ellipse;whiteSpace=wrap;html=1;" parent="1" vertex="1">
          <mxGeometry x="945" y="1" width="170" height="74" as="geometry" />
        </mxCell>
        <mxCell id="031xoFP-o4x697wF1NQH-47" value="" style="endArrow=none;html=1;rounded=0;exitX=1;exitY=0.3333333333333333;exitDx=0;exitDy=0;exitPerimeter=0;entryX=0;entryY=0.5;entryDx=0;entryDy=0;" parent="1" source="031xoFP-o4x697wF1NQH-14" target="031xoFP-o4x697wF1NQH-48" edge="1">
          <mxGeometry width="50" height="50" relative="1" as="geometry">
            <mxPoint x="827" y="111" as="sourcePoint" />
            <mxPoint x="1048" y="118" as="targetPoint" />
          </mxGeometry>
        </mxCell>
        <mxCell id="031xoFP-o4x697wF1NQH-48" value="&lt;font style=&quot;font-size: 16px;&quot;&gt;Удаление мастера&lt;/font&gt;" style="ellipse;whiteSpace=wrap;html=1;" parent="1" vertex="1">
          <mxGeometry x="926" y="158" width="170" height="74" as="geometry" />
        </mxCell>
        <mxCell id="CEhIyXs4ktfvc3ES4UAk-1" value="&lt;font style=&quot;font-size: 16px;&quot;&gt;Просмотр портфолио мастера&lt;/font&gt;" style="ellipse;whiteSpace=wrap;html=1;" vertex="1" parent="1">
          <mxGeometry x="358" y="53" width="170" height="74" as="geometry" />
        </mxCell>
        <mxCell id="CEhIyXs4ktfvc3ES4UAk-3" value="" style="endArrow=none;html=1;rounded=0;exitX=1;exitY=0.5;exitDx=0;exitDy=0;" edge="1" parent="1" source="CEhIyXs4ktfvc3ES4UAk-1">
          <mxGeometry width="50" height="50" relative="1" as="geometry">
            <mxPoint x="661" y="247" as="sourcePoint" />
            <mxPoint x="641" y="236" as="targetPoint" />
          </mxGeometry>
        </mxCell>
        <mxCell id="CEhIyXs4ktfvc3ES4UAk-4" value="" style="endArrow=none;html=1;rounded=0;entryX=0;entryY=0.5;entryDx=0;entryDy=0;" edge="1" parent="1" target="CEhIyXs4ktfvc3ES4UAk-1">
          <mxGeometry width="50" height="50" relative="1" as="geometry">
            <mxPoint x="84" y="284" as="sourcePoint" />
            <mxPoint x="237" y="123" as="targetPoint" />
          </mxGeometry>
        </mxCell>
      </root>
    </mxGraphModel>
  </diagram>
</mxfile>
